<svg xmlns="http://www.w3.org/2000/svg" xmlns:xlink="http://www.w3.org/1999/xlink" viewBox="0 0 114.68 43.2"><defs><style>.cls-1{fill:#fff;}.cls-2{clip-path:url(#clip-path);}.cls-3{clip-path:url(#clip-path-2);}.cls-4{clip-path:url(#clip-path-3);}.cls-5{clip-path:url(#clip-path-4);}</style><clipPath id="clip-path" transform="translate(0 1.95)"><polygon class="cls-1" points="13.15 0 13.15 14.37 19.61 17.92 19.61 3.56 13.15 0 13.15 0"/></clipPath><clipPath id="clip-path-2" transform="translate(0 1.95)"><polygon class="cls-1" points="13.15 22.26 13.15 36.63 19.61 40.19 19.61 40.19 19.61 25.81 13.15 22.26 13.15 22.26"/></clipPath><clipPath id="clip-path-3" transform="translate(0 1.95)"><polygon class="cls-1" points="0 9.33 0 36.16 0 36.16 6.46 30.02 6.46 3.19 0 9.33"/></clipPath><clipPath id="clip-path-4" transform="translate(0 1.95)"><polygon class="cls-1" points="26.62 9.33 26.62 36.16 26.63 36.16 33.09 30.02 33.09 3.19 26.62 9.33"/></clipPath></defs><g id="Capa_2" data-name="Capa 2"><g id="G.Header"><rect class="cls-1" x="77.59" y="9.26" width="7.2" height="25.57"/><polygon class="cls-1" points="64.89 18.45 52.98 18.45 52.98 9.26 45.77 9.26 45.77 34.83 52.98 34.83 52.98 25.65 64.89 25.65 64.89 34.83 72.1 34.83 72.1 9.26 64.89 9.26 64.89 18.45"/><polygon class="cls-1" points="89.6 9.26 89.6 16.21 98.54 16.21 98.54 34.83 105.74 34.83 105.74 16.21 114.68 16.21 114.68 9.26 89.6 9.26"/><polygon class="cls-1" points="13.15 1.96 13.15 16.32 19.61 19.88 19.61 5.51 13.15 1.95 13.15 1.96"/><g class="cls-2"><rect class="cls-1" x="6.86" y="3.04" width="19.05" height="11.84" transform="translate(2.66 23.58) rotate(-71.4)"/></g><polygon class="cls-1" points="13.15 24.21 13.15 38.58 19.61 42.14 19.61 42.14 19.61 27.77 13.15 24.21 13.15 24.21"/><g class="cls-3"><rect class="cls-1" x="11.7" y="21.84" width="9.38" height="18.76" transform="translate(-5 5.14) rotate(-9.65)"/></g><polygon class="cls-1" points="0 11.29 0 38.11 0 38.11 6.46 31.97 6.46 5.14 0 11.29"/><g class="cls-4"><rect class="cls-1" y="5.14" width="6.46" height="32.97"/></g><polygon class="cls-1" points="26.62 11.29 26.62 38.11 26.63 38.11 33.09 31.97 33.09 5.14 26.62 11.29"/><g class="cls-5"><rect class="cls-1" x="26.62" y="5.14" width="6.46" height="32.97"/></g></g></g></svg>