<svg width="67" height="67" viewBox="0 0 67 67" fill="none" xmlns="http://www.w3.org/2000/svg">
<g clip-path="url(#clip0_118_189)">
<path d="M13.5055 1.27552C13.5976 0.758897 14.1311 0.15961 14.6552 0.0337411L51.3432 -0.00195312C51.8354 0.0374984 52.6 0.830285 52.6 1.27364V4.43728H61.9519C64.4843 4.43728 66.1451 7.26463 66.1056 9.57536C65.9403 19.256 60.077 28.5534 51.5687 33.0077C50.7515 33.436 49.0738 33.9583 48.4708 34.4091C47.8678 34.86 47.1595 35.991 46.5546 36.5714C43.4473 39.5529 38.9254 41.6494 34.6008 41.8429V49.4364H42.5456C42.6564 49.4364 43.498 49.6506 43.6784 49.7088C45.696 50.3569 46.5433 52.5117 46.5659 54.4862C49.8516 55.3616 52.5775 58.0819 53.5751 61.3282C53.9996 62.709 54.7098 65.6002 52.7485 65.9684L13.8531 66.0361C11.997 65.8726 11.9575 64.7586 12.1172 63.1655C12.5117 59.2279 15.7167 55.4706 19.5378 54.4862C19.5867 52.8781 20.3306 50.7327 21.8448 49.9718C22.089 49.8497 23.359 49.4383 23.5619 49.4383H31.5067V41.8448C27.1125 41.6363 22.5455 39.4833 19.412 36.4324C18.8465 35.882 18.1946 34.8431 17.6366 34.411C17.1144 34.0071 15.9346 33.7178 15.2865 33.3872C6.34788 28.8277 0.180299 19.8008 -5.05168e-05 9.57724C-0.039502 7.28906 1.63625 4.43916 4.15363 4.43916H13.5055C13.6239 3.48669 13.3458 2.17727 13.5055 1.27552ZM49.5059 3.03393H16.5996V24.0559C19.0494 43.8005 47.0468 43.8136 49.5041 24.0559V3.03393H49.5059ZM13.5055 7.53328H4.01461C3.77414 7.53328 3.19364 8.19268 3.12977 8.47636C2.79161 9.98491 3.40968 13.4717 3.81359 15.046C5.38602 21.1741 9.50776 26.5301 14.9107 29.752C14.1762 27.6009 13.6351 25.3541 13.5074 23.0715C13.2218 17.9842 13.7178 12.6451 13.5074 7.53328H13.5055ZM62.091 7.53328H52.5982C52.3859 12.6451 52.8819 17.9842 52.5982 23.0715C52.4704 25.3578 51.9162 27.5953 51.1948 29.752C57.6724 25.9797 62.5174 18.5271 63.004 10.9768C63.0641 10.0431 63.2764 7.78878 62.091 7.53328ZM43.5995 53.9395C43.4097 53.4154 43.2519 52.9119 42.7203 52.6395L23.483 52.5963C22.8893 52.8424 22.7015 53.3778 22.5061 53.9395H43.5995ZM50.913 62.9382C50.1954 59.8065 47.4939 57.2534 44.2401 57.0261C36.9961 56.5208 29.1734 57.4225 21.8673 57.0261C18.5966 57.2816 15.9214 59.784 15.1944 62.9382H50.913Z" fill="black"/>
<path d="M34.1311 8.7056C34.8525 9.427 36.0286 14.7868 36.3066 14.9671C38.1834 15.2019 40.5824 14.7154 42.3953 14.9953C43.6634 15.1907 44.0241 16.6203 43.3215 17.5916L38.4163 21.2737L40.1898 26.9021C40.5073 27.894 39.8065 28.9442 38.7601 28.8991C37.5033 28.8446 34.3998 25.5983 33.004 25.14L28.0951 28.6605C27.0167 29.1077 25.8012 28.3487 25.8745 27.1539L27.6874 21.2718C27.631 21.0971 27.477 21.0107 27.3549 20.8923C26.1751 19.7689 23.731 18.668 22.7109 17.5221C21.8091 16.5114 22.2469 15.185 23.5751 14.9972C24.5294 14.8619 29.5078 15.1531 29.8009 14.9652L31.8617 8.79953C32.4498 8.14764 33.4999 8.07062 34.1311 8.70372V8.7056ZM31.4353 17.9391C30.7233 18.1176 29.35 17.8076 28.5516 17.9391C29.1884 18.7977 30.7458 19.2429 30.9919 20.3626C31.1591 21.1309 30.3739 22.4704 30.2405 23.282C30.3757 23.4172 32.0872 21.9613 32.3896 21.8467C33.8024 21.3094 34.6797 22.7034 35.7937 23.2857C35.7937 22.2713 34.7549 21.0032 35.2001 20.0188C35.5608 19.2222 37.0412 18.6887 37.554 17.941H34.6703C34.6121 17.941 34.0936 17.4751 34.0053 17.3417C33.6652 16.8307 33.4699 15.7806 33.2294 15.1569C33.1712 15.0066 33.2745 14.7567 32.9833 14.8469C32.8105 14.8995 32.4009 17.7005 31.4353 17.941V17.9391Z" fill="black"/>
</g>
<defs>
<clipPath id="clip0_118_189">
<rect width="66.1057" height="66.038" fill="white"/>
</clipPath>
</defs>
</svg>
