<svg width="78" height="66" viewBox="0 0 78 66" fill="none" xmlns="http://www.w3.org/2000/svg">
<path d="M77.9985 44.6102C77.5293 45.6402 76.7615 46.3732 75.5671 46.2906V63.7788C75.4087 65.2006 74.2997 66.024 72.9134 65.9995H5.25174C3.86088 66.0224 2.75642 65.196 2.59798 63.7788V46.2906C1.43868 46.3855 0.343358 45.5284 0.178831 44.3668C-0.368068 40.4949 0.549016 35.4108 0.178831 31.4102C0.366209 30.4874 0.975567 29.6885 1.95054 29.5247C4.06501 29.1681 6.83455 29.7451 9.02215 29.4513C10.8822 27.9453 12.8824 26.7317 15.0609 25.7461C6.29374 18.2179 9.31007 3.58853 20.5375 0.54451C33.3157 -2.92038 43.5728 10.9132 36.7738 22.2047L35.1301 24.6013H45.6187C36.2452 14.4041 44.8296 -2.02814 58.5721 0.206285C69.7523 2.02291 74.583 15.7723 66.9798 24.2983C66.25 25.1156 65.4289 25.59 64.719 26.2695C64.5926 26.3904 64.5774 26.372 64.6215 26.5848C66.346 27.1495 67.6775 28.4442 69.143 29.4513C71.3306 29.7466 74.0986 29.1681 76.2146 29.5247C77.2109 29.6931 77.5597 30.3634 78 31.1684V44.6102H77.9985ZM17.3978 21.6445C22.4661 26.7363 31.2866 24.8248 33.724 18.0695C36.5012 10.3745 29.7373 2.9381 21.8735 4.9399C14.4957 6.81774 12.0217 16.2421 17.3978 21.6445ZM55.1643 4.63535C41.5695 5.99743 44.7092 27.0454 58.0923 24.3794C70.3008 21.9476 67.6744 3.38193 55.1643 4.63535ZM43.4905 29.1834H20.1566C19.5305 29.1834 17.6796 29.7482 17.0032 29.9854C16.4761 30.1706 14.2017 31.1654 14.0006 31.551C18.7658 35.4444 17.4679 43.3644 11.7734 45.657C11.3636 45.8223 10.0169 46.2906 9.66654 46.2906H7.15751V61.4128H12.3264V51.1023C12.3264 50.8987 12.8763 49.9131 13.0789 49.7203C13.9214 48.9229 15.2178 48.8632 16.1196 49.581C16.3268 49.7463 16.8859 50.5942 16.8859 50.7962V61.1832L17.1144 61.4128H36.8013L36.7952 42.8487C37.1699 37.5013 39.6455 32.7953 43.4905 29.185V29.1834ZM41.3623 42.5487V61.4128H61.0492L61.2777 61.1832V50.7962C61.2777 50.5804 61.7804 49.8565 61.9861 49.6744C62.8971 48.8663 64.1904 48.874 65.0862 49.7203C65.2903 49.9131 65.8387 50.8987 65.8387 51.1023V61.4128H71.0076V46.2906H68.4986C68.1482 46.2906 66.8015 45.8223 66.3917 45.657C60.7049 43.3675 59.3932 35.4398 64.1645 31.551C55.9656 26.0277 44.5736 30.4231 41.9305 39.9118C41.7249 40.651 41.4278 41.8095 41.3623 42.5487ZM4.72617 41.7085H9.36339C9.48373 41.7085 10.6156 41.1392 10.7984 41.0121C12.8596 39.5598 12.8657 36.2295 10.7984 34.7695C10.6171 34.641 9.48373 34.0716 9.36339 34.0716H4.72617V41.7085ZM73.4374 34.0701H68.8002C68.6799 34.0701 67.5465 34.6394 67.3652 34.768C65.2918 36.2326 65.2979 39.5506 67.3652 41.0106C67.5465 41.1392 68.6799 41.7085 68.8002 41.7085H73.4374V34.0716V34.0701Z" fill="black"/>
</svg>
