<svg width="65" height="65" viewBox="0 0 65 65" fill="none" xmlns="http://www.w3.org/2000/svg">
<path d="M38.9575 -0.00012207C39.5326 0.177303 40.087 0.277105 40.6478 0.524233C42.1528 1.18641 46.3365 5.48105 47.5626 6.89095C48.3024 7.74164 49.3306 9.2751 49.3306 10.4363V26.0576C51.4486 24.3372 53.2561 21.8137 55.3424 20.1171C60.4941 15.927 67.1982 21.9246 63.8557 27.4929L49.3955 42.1241L49.3274 59.3851C49.0391 62.4061 46.864 64.5399 43.832 64.768L5.3782 64.7617C2.50455 64.5209 0.484751 62.4964 0 59.7035V5.05967C0.383365 2.50918 2.44277 0.296115 5.05979 -0.00012207H38.9575ZM34.1512 3.79551H5.24989C4.87127 3.79551 3.9192 4.7365 3.85425 5.18323V59.5799C4.11246 60.212 4.45939 60.6049 5.09464 60.871L44.1488 60.9074C44.632 60.8472 45.5365 59.93 45.5365 59.5118V46.0417C45.226 46.2762 45.0613 46.4711 44.6858 46.6469C42.1971 47.816 38.8134 48.3514 36.228 49.4477C34.7532 49.6188 33.8265 48.4512 34.0847 47.0477C34.5694 44.4164 36.3167 41.2196 36.9552 38.5344L45.5381 29.915V15.1792H35.6086C35.2221 15.1792 34.1544 14.1004 34.1544 13.725V3.79551H34.1512ZM45.5349 11.3836C45.5856 10.8608 45.4573 10.3571 45.1563 9.92777C44.5765 9.09926 40.3167 4.86165 39.4676 4.23274C38.9955 3.88264 38.5393 3.73848 37.9468 3.79393V11.3836H45.5365H45.5349ZM58.6549 22.5456C57.6315 22.7309 56.586 24.3452 55.7828 24.982L58.4997 27.6988C59.42 26.6105 61.3907 25.4937 60.8664 23.8145C60.5733 22.8751 59.6022 22.3729 58.6549 22.544V22.5456ZM53.0613 27.7036L44.0268 36.7618C43.9872 36.9883 46.2985 39.0952 46.628 39.4548L55.7781 30.4204L53.0613 27.7036ZM38.9575 44.5225C40.5844 43.8398 42.7706 43.7653 43.8811 42.292L41.2799 39.599C39.6847 40.5653 39.6625 42.9257 38.9575 44.5225Z" fill="black"/>
<path d="M9.07247 19.0019L36.2407 18.9702C38.5076 19.3663 38.5124 22.373 36.2407 22.7706H9.29425C7.15406 22.3666 6.98773 19.6641 9.07247 19.0019Z" fill="black"/>
<path d="M9.07244 26.5915L28.7682 26.5709C30.9433 27.0937 30.8625 29.9753 28.6526 30.3602L9.17858 30.3491C7.1271 29.839 7.05581 27.2109 9.07244 26.5899V26.5915Z" fill="black"/>
<path d="M9.07244 34.1796L28.7682 34.1591C30.9433 34.6818 30.8625 37.5634 28.6526 37.9484L9.17858 37.9373C7.1271 37.4272 7.05581 34.7991 9.07244 34.1781V34.1796Z" fill="black"/>
<path d="M9.07244 41.7693L28.7682 41.7487C30.9433 42.2714 30.8625 45.153 28.6526 45.538L9.17858 45.5269C7.1271 45.0168 7.05581 42.3887 9.07244 41.7677V41.7693Z" fill="black"/>
<path d="M24.2502 53.4065L36.3563 53.3859C38.4775 53.8975 38.4696 56.6587 36.3563 57.1657H24.3564C22.3049 56.6556 22.2336 54.0274 24.2502 53.408V53.4065Z" fill="black"/>
</svg>